<?xml version="1.0" standalone="no"?>
<!DOCTYPE svg PUBLIC "-//W3C//DTD SVG 20010904//EN"
 "http://www.w3.org/TR/2001/REC-SVG-20010904/DTD/svg10.dtd">
<svg version="1.0" xmlns="http://www.w3.org/2000/svg"
 width="50.000000pt" height="50.000000pt" viewBox="0 0 50.000000 50.000000"
 preserveAspectRatio="xMidYMid meet">

<g transform="translate(0.000000,50.000000) scale(0.100000,-0.100000)"
fill="#000000" stroke="none">
<path d="M155 456 c-60 -28 -87 -56 -114 -116 -36 -79 -19 -183 42 -249 33
-36 115 -71 167 -71 52 0 134 35 167 71 34 37 63 110 63 159 0 52 -35 134 -71
167 -37 34 -110 63 -159 63 -27 0 -65 -10 -95 -24z m180 -15 c128 -58 164
-223 72 -328 -101 -115 -283 -88 -348 52 -79 171 104 354 276 276z"/>
<path d="M180 250 c0 -53 4 -90 10 -90 6 0 10 12 10 28 0 15 5 34 10 42 9 12
17 8 48 -28 53 -60 71 -52 22 10 l-41 51 38 39 c26 26 32 38 21 38 -9 0 -32
-18 -51 -40 -19 -22 -37 -40 -40 -40 -4 0 -7 18 -7 40 0 22 -4 40 -10 40 -6 0
-10 -37 -10 -90z"/>
</g>
</svg>
